<svg id="ratedexcellent-badge-1" xmlns="http://www.w3.org/2000/svg" width="134" height="134" viewBox="0 0 134 134">
  <defs>
    <style>
      .cls-1 {
        fill: #000032;
        stroke: #000032;
        stroke-width: 8px;
      }

      .cls-2, .cls-5 {
        fill: #fff;
      }

      .cls-3 {
        fill: #00b67a;
      }

      .cls-4 {
        fill: #005128;
      }

      .cls-5 {
        fill-rule: evenodd;
      }
    </style>
  </defs>
  <circle id="Oval" class="cls-1" cx="63" cy="63" r="63" transform="translate(4 4)"/>
  <g id="logo-white" transform="translate(30.418 86.557)">
    <g id="Trustpilot_brandmark_gr-wht_RGB">
      <g id="Type" transform="translate(18.777 6.424)">
        <path id="Shape" class="cls-2" d="M.109.107H7.347V1.5H4.5V9.338H2.936V1.5H.1V.107ZM7.037,2.654H8.375v1.29H8.4a1.537,1.537,0,0,1,.246-.528,2.368,2.368,0,0,1,1-.814,1.69,1.69,0,0,1,.637-.13c.164,0,.284.007.347.013s.126.02.2.026v1.42c-.1-.02-.2-.033-.309-.046a2.539,2.539,0,0,0-.309-.02,1.628,1.628,0,0,0-.681.15,1.577,1.577,0,0,0-.555.437,2.239,2.239,0,0,0-.379.717,3.128,3.128,0,0,0-.139.984V9.332H7.031V2.654ZM17.385,9.338h-1.4V8.407h-.025a1.978,1.978,0,0,1-.782.808,2.09,2.09,0,0,1-1.06.306,2.33,2.33,0,0,1-1.849-.652A2.946,2.946,0,0,1,11.7,6.9V2.654h1.426v4.1A1.842,1.842,0,0,0,13.454,8a1.169,1.169,0,0,0,.915.365,1.706,1.706,0,0,0,.751-.143,1.272,1.272,0,0,0,.486-.384,1.5,1.5,0,0,0,.271-.573,2.911,2.911,0,0,0,.082-.723V2.66h1.426Zm2.429-2.143a1.143,1.143,0,0,0,.473.906,1.862,1.862,0,0,0,.991.261,4.1,4.1,0,0,0,.454-.033,1.859,1.859,0,0,0,.48-.124.922.922,0,0,0,.372-.267.662.662,0,0,0,.132-.456.638.638,0,0,0-.2-.463,1.413,1.413,0,0,0-.48-.293,4.694,4.694,0,0,0-.669-.189c-.252-.052-.5-.111-.763-.169a7.068,7.068,0,0,1-.77-.222,2.324,2.324,0,0,1-.663-.352,1.534,1.534,0,0,1-.467-.56,1.8,1.8,0,0,1-.177-.847,1.562,1.562,0,0,1,.259-.912,1.983,1.983,0,0,1,.65-.593,2.95,2.95,0,0,1,.877-.319,5.176,5.176,0,0,1,.921-.091,4.166,4.166,0,0,1,.959.111,2.431,2.431,0,0,1,.827.358,2.079,2.079,0,0,1,.612.638,2.271,2.271,0,0,1,.309.951H22.452a.917.917,0,0,0-.467-.71,1.862,1.862,0,0,0-.845-.182,2.572,2.572,0,0,0-.36.026,1.917,1.917,0,0,0-.391.1.846.846,0,0,0-.309.208.513.513,0,0,0-.126.358.566.566,0,0,0,.183.437,1.519,1.519,0,0,0,.473.28,4.694,4.694,0,0,0,.669.189c.252.052.511.111.776.169a7.869,7.869,0,0,1,.763.222,2.279,2.279,0,0,1,.669.352,1.626,1.626,0,0,1,.656,1.381,1.844,1.844,0,0,1-.265,1.01,2.128,2.128,0,0,1-.681.671,3.145,3.145,0,0,1-.934.378,4.544,4.544,0,0,1-1.016.117,4.181,4.181,0,0,1-1.136-.143,2.726,2.726,0,0,1-.9-.43,2.115,2.115,0,0,1-.6-.723,2.437,2.437,0,0,1-.233-1.029h1.439Zm4.707-4.541H25.6V.647h1.426V2.654h1.287v1.1H27.026v3.57a3.76,3.76,0,0,0,.019.4.76.76,0,0,0,.088.287.408.408,0,0,0,.208.176.988.988,0,0,0,.379.059c.1,0,.2,0,.3-.007a1.621,1.621,0,0,0,.3-.046v1.14c-.158.02-.315.033-.461.052a3.574,3.574,0,0,1-.461.026,3.1,3.1,0,0,1-.909-.111,1.172,1.172,0,0,1-.536-.326,1.144,1.144,0,0,1-.265-.534,4.142,4.142,0,0,1-.082-.736V3.768H24.534V2.654Zm4.8,0h1.35V3.56H30.7a1.788,1.788,0,0,1,.839-.834A2.691,2.691,0,0,1,32.7,2.471a2.941,2.941,0,0,1,1.331.28,2.616,2.616,0,0,1,.946.762,3.376,3.376,0,0,1,.562,1.134,4.894,4.894,0,0,1,.189,1.381,4.948,4.948,0,0,1-.17,1.3,3.539,3.539,0,0,1-.511,1.121,2.489,2.489,0,0,1-2.114,1.068,3.378,3.378,0,0,1-.625-.059,2.686,2.686,0,0,1-.6-.189,2.153,2.153,0,0,1-.53-.332,2.043,2.043,0,0,1-.41-.469h-.025v3.336H29.323ZM34.307,6a3.43,3.43,0,0,0-.114-.88,2.408,2.408,0,0,0-.341-.756,1.758,1.758,0,0,0-.562-.528,1.535,1.535,0,0,0-.776-.2,1.553,1.553,0,0,0-1.357.645A2.931,2.931,0,0,0,30.7,6a3.4,3.4,0,0,0,.12.938,2.122,2.122,0,0,0,.36.743,1.717,1.717,0,0,0,.568.489,1.729,1.729,0,0,0,1.6-.026,1.769,1.769,0,0,0,.555-.534,2.257,2.257,0,0,0,.315-.749A4.319,4.319,0,0,0,34.307,6Zm2.518-5.9h1.426V1.5H36.825Zm0,2.547h1.426V9.338H36.825Zm2.7-2.547h1.426V9.338H39.525Zm5.8,9.414a3.429,3.429,0,0,1-1.382-.267,3.05,3.05,0,0,1-1.028-.73,3.2,3.2,0,0,1-.637-1.114,4.428,4.428,0,0,1-.221-1.42,4.376,4.376,0,0,1,.221-1.407,3.2,3.2,0,0,1,.637-1.114,2.905,2.905,0,0,1,1.028-.73,3.708,3.708,0,0,1,2.764,0,3.05,3.05,0,0,1,1.028.73,3.2,3.2,0,0,1,.637,1.114,4.376,4.376,0,0,1,.221,1.407,4.428,4.428,0,0,1-.221,1.42,3.2,3.2,0,0,1-.637,1.114,2.905,2.905,0,0,1-1.028.73A3.429,3.429,0,0,1,45.324,9.521Zm0-1.166a1.612,1.612,0,0,0,.827-.208,1.781,1.781,0,0,0,.574-.541,2.465,2.465,0,0,0,.334-.756,3.475,3.475,0,0,0,0-1.713,2.264,2.264,0,0,0-.334-.756,1.761,1.761,0,0,0-.574-.534,1.743,1.743,0,0,0-1.653,0,1.834,1.834,0,0,0-.574.534,2.4,2.4,0,0,0-.334.756,3.475,3.475,0,0,0,0,1.713,2.323,2.323,0,0,0,.334.756,1.781,1.781,0,0,0,.574.541A1.551,1.551,0,0,0,45.324,8.355Zm3.685-5.7h1.079V.647h1.426V2.654H52.8v1.1H51.513v3.57a3.761,3.761,0,0,0,.019.4.76.76,0,0,0,.088.287.408.408,0,0,0,.208.176.988.988,0,0,0,.379.059c.1,0,.2,0,.3-.007a1.621,1.621,0,0,0,.3-.046v1.14c-.158.02-.315.033-.461.052a3.574,3.574,0,0,1-.461.026,3.1,3.1,0,0,1-.909-.111,1.172,1.172,0,0,1-.536-.326,1.144,1.144,0,0,1-.265-.534A4.142,4.142,0,0,1,50.1,7.71V3.768H49.021V2.654Z" transform="translate(-0.103 -0.107)"/>
      </g>
      <g id="Star">
        <path id="Shape-2" data-name="Shape" class="cls-3" d="M17.118,6.424H10.581L8.562,0,6.537,6.424,0,6.417l5.294,3.974L3.268,16.809l5.294-3.968,5.287,3.968L11.83,10.392l5.287-3.968Z"/>
        <path id="Shape-3" data-name="Shape" class="cls-4" d="M27.057,29.774,26.6,28.321l-3.268,2.45Z" transform="translate(-14.773 -17.929)"/>
      </g>
    </g>
  </g>
  <path id="Rated-Excellent" class="cls-5" d="M71.229,103.866h3.724a2.571,2.571,0,0,0,1.754-.52,2.156,2.156,0,0,0,.585-1.689,2.06,2.06,0,0,0-.585-1.634,2.608,2.608,0,0,0-1.754-.509H71.229Zm-3.4-6.992h8.335a4.976,4.976,0,0,1,1.873.336,4.31,4.31,0,0,1,1.429.92,3.994,3.994,0,0,1,.909,1.353,4.337,4.337,0,0,1,.314,1.656,4.647,4.647,0,0,1-.574,2.36,3.6,3.6,0,0,1-1.873,1.515v.043a2.622,2.622,0,0,1,1.039.53,2.941,2.941,0,0,1,.671.844,3.931,3.931,0,0,1,.379,1.072,9.289,9.289,0,0,1,.162,1.169q.022.368.043.866t.076,1.017a6.826,6.826,0,0,0,.173.985,2.275,2.275,0,0,0,.357.79h-3.4a5.993,5.993,0,0,1-.346-1.754q-.065-1.017-.195-1.948a3.07,3.07,0,0,0-.736-1.775,2.53,2.53,0,0,0-1.84-.563h-3.4v6.04h-3.4Zm15.176,7.707a3.571,3.571,0,0,1,.541-1.8,3.685,3.685,0,0,1,1.212-1.147,5.283,5.283,0,0,1,1.656-.617,9.416,9.416,0,0,1,1.851-.184,12.544,12.544,0,0,1,1.71.119,5.232,5.232,0,0,1,1.58.465,3.114,3.114,0,0,1,1.169.963,2.692,2.692,0,0,1,.455,1.634v5.823a11.7,11.7,0,0,0,.087,1.45,2.622,2.622,0,0,0,.3,1.039H90.453a4.41,4.41,0,0,1-.141-.53,4.621,4.621,0,0,1-.076-.552,4.006,4.006,0,0,1-1.732,1.061,6.951,6.951,0,0,1-2.035.3,5.5,5.5,0,0,1-1.494-.195,3.421,3.421,0,0,1-1.212-.606,2.822,2.822,0,0,1-.812-1.039,3.513,3.513,0,0,1-.292-1.494,3.263,3.263,0,0,1,.336-1.57,2.806,2.806,0,0,1,.866-.985,3.88,3.88,0,0,1,1.212-.552,12.942,12.942,0,0,1,1.375-.292q.693-.108,1.364-.173A8.2,8.2,0,0,0,89,105.512a2.076,2.076,0,0,0,.823-.379.832.832,0,0,0,.281-.725,1.631,1.631,0,0,0-.162-.79,1.194,1.194,0,0,0-.433-.455,1.7,1.7,0,0,0-.628-.216,5.137,5.137,0,0,0-.769-.054,2.333,2.333,0,0,0-1.429.39,1.739,1.739,0,0,0-.606,1.3Zm7.1,2.273a1.379,1.379,0,0,1-.487.271,4.974,4.974,0,0,1-.628.162q-.336.065-.7.108t-.736.108a5.552,5.552,0,0,0-.682.173,2.016,2.016,0,0,0-.585.292,1.389,1.389,0,0,0-.4.465,1.5,1.5,0,0,0-.152.714,1.446,1.446,0,0,0,.152.693,1.162,1.162,0,0,0,.411.444,1.736,1.736,0,0,0,.606.227,3.869,3.869,0,0,0,.714.065,2.717,2.717,0,0,0,1.407-.3,2.027,2.027,0,0,0,.736-.725,2.319,2.319,0,0,0,.292-.855,5.874,5.874,0,0,0,.054-.693Zm9.352-5.715h2.251V103.2H99.458v5.542a1.041,1.041,0,0,0,1.3,1.3q.26,0,.5-.022a4.306,4.306,0,0,0,.455-.065v2.381a7.317,7.317,0,0,1-.866.087q-.476.022-.931.022a8.975,8.975,0,0,1-1.353-.1,3.191,3.191,0,0,1-1.126-.379,2.006,2.006,0,0,1-.769-.8,2.86,2.86,0,0,1-.281-1.364v-6.6H94.523v-2.057h1.862V97.783h3.074Zm11.257,4.395a3.553,3.553,0,0,0-.769-1.775,2.159,2.159,0,0,0-1.678-.606,2.674,2.674,0,0,0-1.223.249,2.329,2.329,0,0,0-.779.617,2.26,2.26,0,0,0-.411.779,3.529,3.529,0,0,0-.141.736Zm-5,1.948a3.108,3.108,0,0,0,.758,2.165,3.152,3.152,0,0,0,3.594.206,1.931,1.931,0,0,0,.823-.985h2.706a5.137,5.137,0,0,1-1.992,2.879,5.863,5.863,0,0,1-3.247.866,6.392,6.392,0,0,1-2.381-.422,4.951,4.951,0,0,1-1.8-1.2,5.408,5.408,0,0,1-1.137-1.862,6.815,6.815,0,0,1-.4-2.381,6.528,6.528,0,0,1,.411-2.338,5.411,5.411,0,0,1,2.977-3.117,5.8,5.8,0,0,1,2.327-.455,5.322,5.322,0,0,1,2.49.552,4.969,4.969,0,0,1,1.743,1.483,6.094,6.094,0,0,1,.985,2.122,7.9,7.9,0,0,1,.216,2.49Zm17.838-.779a6.665,6.665,0,0,0-.13-1.331,3.254,3.254,0,0,0-.444-1.126,2.5,2.5,0,0,0-.812-.79,2.379,2.379,0,0,0-1.256-.3,2.5,2.5,0,0,0-1.277.3,2.4,2.4,0,0,0-.833.8,3.54,3.54,0,0,0-.455,1.137,6.171,6.171,0,0,0-.141,1.331,5.7,5.7,0,0,0,.152,1.3,3.547,3.547,0,0,0,.487,1.158,2.7,2.7,0,0,0,.844.823,2.284,2.284,0,0,0,1.223.314,2.438,2.438,0,0,0,1.266-.3,2.3,2.3,0,0,0,.812-.812,3.638,3.638,0,0,0,.433-1.158A6.828,6.828,0,0,0,123.553,106.7Zm.043,4.2h-.043a3.171,3.171,0,0,1-1.418,1.31,4.715,4.715,0,0,1-1.981.4,4.785,4.785,0,0,1-2.208-.487,4.433,4.433,0,0,1-1.57-1.321,5.993,5.993,0,0,1-.931-1.916,8.043,8.043,0,0,1-.314-2.251,7.555,7.555,0,0,1,.314-2.176,5.655,5.655,0,0,1,.931-1.851,4.519,4.519,0,0,1,3.713-1.775,4.4,4.4,0,0,1,1.894.422A3.3,3.3,0,0,1,123.4,102.5h.043V96.874h3.074v15.457H123.6Zm-72.381,8.354h11.56v2.858H54.614v3.312H62.1v2.641h-7.49v3.788h8.335v2.858H51.215Zm16.561,9.569-3.68-5.3H67.6l1.97,2.923,1.948-2.923h3.4l-3.68,5.239,4.135,5.953H71.868l-2.338-3.529-2.338,3.529H63.749Zm16.388-1.364a2.061,2.061,0,0,0-2.273-1.927,2.159,2.159,0,0,0-1.234.336,2.667,2.667,0,0,0-.812.866A3.741,3.741,0,0,0,79.4,127.9a6.341,6.341,0,0,0-.13,1.266,6.08,6.08,0,0,0,.13,1.234,3.817,3.817,0,0,0,.422,1.137,2.425,2.425,0,0,0,.79.833,2.172,2.172,0,0,0,1.212.325,2.252,2.252,0,0,0,1.7-.617,2.918,2.918,0,0,0,.747-1.656h2.966a5.072,5.072,0,0,1-1.732,3.4,5.589,5.589,0,0,1-3.659,1.169,6.126,6.126,0,0,1-2.306-.422,5.112,5.112,0,0,1-1.786-1.18,5.373,5.373,0,0,1-1.147-1.808,6.268,6.268,0,0,1-.411-2.306,7.456,7.456,0,0,1,.379-2.414,5.43,5.43,0,0,1,1.115-1.927,5.1,5.1,0,0,1,1.8-1.266,6.1,6.1,0,0,1,2.425-.455,7.017,7.017,0,0,1,1.916.26,5.113,5.113,0,0,1,1.645.79,4.086,4.086,0,0,1,1.7,3.193Zm12.34.455a3.553,3.553,0,0,0-.769-1.775,2.159,2.159,0,0,0-1.678-.606,2.674,2.674,0,0,0-1.223.249,2.329,2.329,0,0,0-.779.617,2.26,2.26,0,0,0-.411.779,3.527,3.527,0,0,0-.141.736Zm-5,1.948a3.108,3.108,0,0,0,.758,2.165,3.152,3.152,0,0,0,3.594.206,1.931,1.931,0,0,0,.823-.985h2.706a5.137,5.137,0,0,1-1.992,2.879,5.863,5.863,0,0,1-3.247.866,6.392,6.392,0,0,1-2.381-.422,4.951,4.951,0,0,1-1.8-1.2,5.408,5.408,0,0,1-1.137-1.862,6.815,6.815,0,0,1-.4-2.381,6.528,6.528,0,0,1,.411-2.338,5.411,5.411,0,0,1,2.977-3.117,5.8,5.8,0,0,1,2.327-.455,5.322,5.322,0,0,1,2.49.552,4.969,4.969,0,0,1,1.743,1.483,6.094,6.094,0,0,1,.985,2.122,7.9,7.9,0,0,1,.216,2.49Zm9.98-10.608h3.074v15.457h-3.074Zm5.585,0h3.074v15.457h-3.074Zm13.032,8.659a3.553,3.553,0,0,0-.769-1.775,2.159,2.159,0,0,0-1.678-.606,2.674,2.674,0,0,0-1.223.249,2.328,2.328,0,0,0-.779.617,2.26,2.26,0,0,0-.411.779,3.529,3.529,0,0,0-.141.736Zm-5,1.948a3.108,3.108,0,0,0,.758,2.165,3.152,3.152,0,0,0,3.594.206,1.931,1.931,0,0,0,.823-.985h2.706a5.137,5.137,0,0,1-1.992,2.879,5.863,5.863,0,0,1-3.247.866,6.392,6.392,0,0,1-2.381-.422,4.951,4.951,0,0,1-1.8-1.2,5.408,5.408,0,0,1-1.137-1.862,6.815,6.815,0,0,1-.4-2.381,6.528,6.528,0,0,1,.411-2.338,5.411,5.411,0,0,1,2.977-3.117,5.8,5.8,0,0,1,2.327-.455,5.322,5.322,0,0,1,2.49.552,4.969,4.969,0,0,1,1.743,1.483,6.094,6.094,0,0,1,.985,2.122,7.9,7.9,0,0,1,.216,2.49Zm9.893-6.343h2.923v1.559h.065a3.527,3.527,0,0,1,1.515-1.418,4.382,4.382,0,0,1,1.905-.444,5.221,5.221,0,0,1,2.024.336,3,3,0,0,1,1.245.931,3.6,3.6,0,0,1,.639,1.45,9.02,9.02,0,0,1,.184,1.894v6.884h-3.074v-6.321a3.922,3.922,0,0,0-.433-2.067,1.677,1.677,0,0,0-1.537-.682,2.13,2.13,0,0,0-1.818.747,4.152,4.152,0,0,0-.563,2.457v5.867h-3.074Zm16.734,0h2.251v2.057h-2.251v5.542a1.041,1.041,0,0,0,1.3,1.3q.26,0,.5-.022a4.306,4.306,0,0,0,.455-.065v2.381a7.314,7.314,0,0,1-.866.087q-.476.022-.931.022a8.975,8.975,0,0,1-1.353-.1,3.191,3.191,0,0,1-1.126-.379,2.006,2.006,0,0,1-.769-.8,2.86,2.86,0,0,1-.281-1.364v-6.6h-1.862v-2.057h1.862v-3.356h3.074Z" transform="translate(-29.891 -58.797)"/>
</svg>
